<svg width="34" height="34" viewBox="0 0 34 34" fill="none" xmlns="http://www.w3.org/2000/svg">
<path d="M10.8413 17L8.68 18.4463V15.5537L10.8413 17ZM16.1388 13.4575V9.4275L9.37875 13.945L12.385 15.96L16.1388 13.4575ZM24.6375 13.945L17.8612 9.4275V13.4575L21.615 15.96L24.6375 13.945ZM9.37875 20.055L16.1388 24.5725V20.5425L12.385 18.04L9.37875 20.055ZM17.8612 20.5425V24.5725L24.6375 20.055L21.615 18.04L17.8612 20.5425ZM17 14.9525L13.945 17L17 19.0475L20.055 17L17 14.9525ZM33.25 17C33.25 25.9375 25.9375 33.25 17 33.25C8.0625 33.25 0.75 25.9375 0.75 17C0.75 8.0625 8.0625 0.75 17 0.75C25.9375 0.75 33.25 8.0625 33.25 17ZM27.0425 13.945C27.0425 13.8962 27.0425 13.8638 27.0425 13.8313L27.0263 13.75L27.01 13.6687C26.9937 13.6525 26.9937 13.6362 26.9775 13.6038L26.9612 13.5713L26.9288 13.5063L26.9125 13.4738L26.88 13.425L26.8475 13.3763L26.7988 13.3275L26.75 13.295V13.2625L26.685 13.23L26.6688 13.2137L17.4875 7.10375C17.195 6.90875 16.8213 6.90875 16.5288 7.10375L7.33125 13.2137V13.23L7.25 13.2625C7.25 13.2787 7.25 13.295 7.25 13.295L7.20125 13.3275L7.1525 13.3763L7.13625 13.425L7.0875 13.4738L7.07125 13.5063L7.03875 13.5713L7.0225 13.6038L6.99 13.6687V13.75H6.97375L6.9575 13.8313C6.9575 13.8638 6.9575 13.8962 6.9575 13.945V20.055C6.9575 20.1038 6.9575 20.1362 6.9575 20.1687L6.97375 20.25H6.99V20.3313C7.00625 20.3475 7.00625 20.3638 7.0225 20.3962L7.03875 20.4287L7.07125 20.4937L7.0875 20.5263L7.12 20.575L7.1525 20.6237C7.16875 20.64 7.185 20.6562 7.20125 20.6725L7.25 20.705V20.7375L7.315 20.77L7.33125 20.7862L16.5288 26.9125C16.6588 27.01 16.8375 27.0425 17 27.0425C17.1625 27.0425 17.3412 26.9938 17.4875 26.9125L26.6688 20.7862L26.685 20.77L26.75 20.7375V20.705L26.7988 20.6725L26.8475 20.6237L26.88 20.575L26.9125 20.5263L26.9288 20.4937L26.9612 20.4287L26.9775 20.3962L27.01 20.3313V20.25H27.0263L27.0425 20.1687C27.0425 20.1362 27.0425 20.1038 27.0425 20.055V13.945ZM25.32 18.4463V15.5537L23.1588 17L25.32 18.4463Z" fill="black"/>
</svg>
