<svg width="73" height="72" viewBox="0 0 73 72" fill="none" xmlns="http://www.w3.org/2000/svg">
<path d="M36.8041 55.4833L36.5 55.7875L36.1654 55.4833C21.7175 42.3738 12.1666 33.705 12.1666 24.9146C12.1666 18.8313 16.7291 14.2688 22.8125 14.2688C27.4966 14.2688 32.0591 17.3104 33.6712 21.4471H39.3287C40.9408 17.3104 45.5033 14.2688 50.1875 14.2688C56.2708 14.2688 60.8333 18.8313 60.8333 24.9146C60.8333 33.705 51.2825 42.3738 36.8041 55.4833ZM50.1875 8.18542C44.895 8.18542 39.8154 10.6492 36.5 14.5121C33.1846 10.6492 28.105 8.18542 22.8125 8.18542C13.4441 8.18542 6.08331 15.5158 6.08331 24.9146C6.08331 36.3817 16.425 45.7804 32.0896 59.985L36.5 64L40.9104 59.985C56.575 45.7804 66.9166 36.3817 66.9166 24.9146C66.9166 15.5158 59.5558 8.18542 50.1875 8.18542Z" fill="black"/>
</svg>
