<svg width="73" height="67" viewBox="0 0 73 67" fill="none" xmlns="http://www.w3.org/2000/svg">
<path d="M60.8333 12.3333H51.1913L45.625 6.25H27.375L21.8088 12.3333H12.1667C10.5533 12.3333 9.00596 12.9743 7.86511 14.1151C6.72426 15.2559 6.08334 16.8033 6.08334 18.4167V54.9167C6.08334 56.5301 6.72426 58.0774 7.86511 59.2182C9.00596 60.3591 10.5533 61 12.1667 61H60.8333C62.4467 61 63.9941 60.3591 65.1349 59.2182C66.2758 58.0774 66.9167 56.5301 66.9167 54.9167V18.4167C66.9167 16.8033 66.2758 15.2559 65.1349 14.1151C63.9941 12.9743 62.4467 12.3333 60.8333 12.3333ZM60.8333 54.9167H12.1667V18.4167H24.4854L30.0517 12.3333H42.9483L48.5146 18.4167H60.8333V54.9167ZM36.5 21.4583C32.4665 21.4583 28.5982 23.0606 25.7461 25.9128C22.894 28.7649 21.2917 32.6332 21.2917 36.6667C21.2917 40.7002 22.894 44.5685 25.7461 47.4206C28.5982 50.2727 32.4665 51.875 36.5 51.875C40.5335 51.875 44.4018 50.2727 47.2539 47.4206C50.106 44.5685 51.7083 40.7002 51.7083 36.6667C51.7083 32.6332 50.106 28.7649 47.2539 25.9128C44.4018 23.0606 40.5335 21.4583 36.5 21.4583ZM36.5 45.7917C34.0799 45.7917 31.7589 44.8303 30.0477 43.119C28.3364 41.4077 27.375 39.0868 27.375 36.6667C27.375 34.2466 28.3364 31.9256 30.0477 30.2143C31.7589 28.503 34.0799 27.5417 36.5 27.5417C38.9201 27.5417 41.2411 28.503 42.9524 30.2143C44.6636 31.9256 45.625 34.2466 45.625 36.6667C45.625 39.0868 44.6636 41.4077 42.9524 43.119C41.2411 44.8303 38.9201 45.7917 36.5 45.7917Z" fill="black"/>
</svg>
