<svg width="73" height="74" viewBox="0 0 73 74" fill="none" xmlns="http://www.w3.org/2000/svg">
<path d="M54.4458 53.2279C53.655 50.7946 51.3738 49 48.6667 49H45.625V39.875C45.625 39.0683 45.3045 38.2946 44.7341 37.7242C44.1637 37.1538 43.39 36.8333 42.5833 36.8333H24.3333V30.75H30.4167C31.2234 30.75 31.997 30.4295 32.5675 29.8591C33.1379 29.2887 33.4583 28.515 33.4583 27.7083V21.625H39.5417C41.1551 21.625 42.7024 20.9841 43.8432 19.8432C44.9841 18.7024 45.625 17.1551 45.625 15.5417V14.2946C54.5371 17.8838 60.8333 26.6133 60.8333 36.8333C60.8333 43.16 58.4 48.9088 54.4458 53.2279ZM33.4583 60.9538C21.4438 59.4633 12.1667 49.2433 12.1667 36.8333C12.1667 34.9475 12.41 33.1225 12.8054 31.3888L27.375 45.9583V49C27.375 50.6134 28.0159 52.1607 29.1568 53.3016C30.2976 54.4424 31.8449 55.0833 33.4583 55.0833M36.5 6.41667C32.5056 6.41667 28.5504 7.20342 24.8601 8.732C21.1697 10.2606 17.8166 12.5011 14.9922 15.3255C9.28795 21.0297 6.08334 28.7663 6.08334 36.8333C6.08334 44.9003 9.28795 52.6369 14.9922 58.3412C17.8166 61.1656 21.1697 63.4061 24.8601 64.9347C28.5504 66.4633 32.5056 67.25 36.5 67.25C44.567 67.25 52.3036 64.0454 58.0078 58.3412C63.7121 52.6369 66.9167 44.9003 66.9167 36.8333C66.9167 32.839 66.1299 28.8837 64.6013 25.1934C63.0728 21.5031 60.8323 18.15 58.0078 15.3255C55.1834 12.5011 51.8303 10.2606 48.14 8.732C44.4496 7.20342 40.4944 6.41667 36.5 6.41667Z" fill="black"/>
</svg>
