<svg width="73" height="74" viewBox="0 0 73 74" fill="none" xmlns="http://www.w3.org/2000/svg">
<path d="M36.5 20.0396C38.5167 20.0396 40.4509 20.8407 41.8769 22.2668C43.303 23.6928 44.1041 25.627 44.1041 27.6437C44.1041 28.6423 43.9075 29.6312 43.5253 30.5537C43.1432 31.4763 42.583 32.3146 41.8769 33.0207C41.1708 33.7268 40.3325 34.2869 39.41 34.6691C38.4874 35.0512 37.4986 35.2479 36.5 35.2479C34.4832 35.2479 32.5491 34.4468 31.123 33.0207C29.697 31.5946 28.8958 29.6605 28.8958 27.6437C28.8958 25.627 29.697 23.6928 31.123 22.2668C32.5491 20.8407 34.4832 20.0396 36.5 20.0396ZM36.5 6.35208C42.1469 6.35208 47.5625 8.5953 51.5555 12.5883C55.5484 16.5812 57.7916 21.9968 57.7916 27.6437C57.7916 43.6125 36.5 67.1854 36.5 67.1854C36.5 67.1854 15.2083 43.6125 15.2083 27.6437C15.2083 21.9968 17.4515 16.5812 21.4445 12.5883C25.4375 8.5953 30.8531 6.35208 36.5 6.35208ZM36.5 12.4354C32.4665 12.4354 28.5982 14.0377 25.7461 16.8898C22.8939 19.7419 21.2916 23.6102 21.2916 27.6437C21.2916 30.6854 21.2916 36.7687 36.5 57.1783C51.7083 36.7687 51.7083 30.6854 51.7083 27.6437C51.7083 23.6102 50.106 19.7419 47.2539 16.8898C44.4018 14.0377 40.5335 12.4354 36.5 12.4354Z" fill="black"/>
</svg>
