<svg width="73" height="73" viewBox="0 0 73 73" fill="none" xmlns="http://www.w3.org/2000/svg">
<path d="M64.0423 6.06625L52.0886 8.43875L60.4228 19.2063L66.4148 17.9896L64.0423 6.06625ZM43.1461 10.2029L37.154 11.3892L45.5186 22.1263L51.4803 20.94L43.1461 10.2029ZM28.2419 13.1229L22.2498 14.37L30.6144 25.1071L36.5761 23.9208L28.2419 13.1229ZM13.3073 16.1646L10.3265 16.7425C7.0415 17.3813 4.88192 20.6054 5.55109 23.8904L6.73734 29.8521L21.6415 26.9017L13.3073 16.1646ZM61.4873 35.9354V60.2687H12.8207V35.9354H61.4873ZM67.5707 29.8521H6.73734V60.2687C6.73734 63.645 9.47484 66.3521 12.8207 66.3521H61.4873C64.8636 66.3521 67.5707 63.645 67.5707 60.2687V29.8521Z" fill="black"/>
</svg>
