<svg width="57" height="59" viewBox="0 0 57 59" fill="none" xmlns="http://www.w3.org/2000/svg">
<path d="M9.22297 11.6873C14.9224 -6.92152 22.298 11.6873 22.298 11.6873H36.7142C36.7142 11.6873 44.5592 -6.17718 50.4597 11.6873C57.8354 34.0178 55.1534 50.9349 42.0783 53.9799C29.0032 57.025 20.957 58.3784 9.22297 50.9349C-2.51101 43.4914 3.52355 30.296 9.22297 11.6873Z" stroke="black" stroke-width="5"/>
<ellipse cx="19.5" cy="25.4167" rx="3" ry="4" fill="black"/>
<ellipse cx="27.7004" cy="39.4844" rx="3.35258" ry="4.0231" transform="rotate(89.3409 27.7004 39.4844)" fill="black"/>
<path d="M30.911 39.75H39.1301M30.911 38.0834L40.5 34.4167M17.2123 40.4167H24.7466M15.5 35.75L24.7466 38.0834" stroke="black" stroke-width="2"/>
<ellipse cx="37" cy="25.4167" rx="3.5" ry="4" fill="black"/>
</svg>
