<svg width="35" height="34" viewBox="0 0 35 34" fill="none" xmlns="http://www.w3.org/2000/svg">
<path d="M14 16.5328C14 13.4173 19.3311 15.549 18.9837 18.5004C18.6364 21.4519 14 19.6482 14 16.5328Z" stroke="black" stroke-width="3"/>
<path d="M7.19666 2.93861C3.45763 8.94145 8.29297 11.4545 11.1203 13.1816C12.8514 14.2389 1.77275 19.232 2.00356 27.2358C2.23436 35.2396 14.5247 31.7618 15.7364 26.4021C16.7174 22.063 18.1599 35.7518 28.6615 31.7618C37.0627 28.5698 32.1236 18.8985 23.5261 15.2659C21.7951 14.4321 34.3162 8.23874 27.8536 2.93861C22.6836 -1.30149 17.1213 5.85665 15.7364 10.0848C15.1854 11.7672 10.9357 -3.06424 7.19666 2.93861Z" stroke="black" stroke-width="3"/>
</svg>
