<svg width="34" height="33" viewBox="0 0 34 33" fill="none" xmlns="http://www.w3.org/2000/svg">
<path d="M17 0.75C14.866 0.75 12.7529 1.17032 10.7814 1.98696C8.80985 2.8036 7.01847 4.00056 5.50951 5.50951C2.46205 8.55698 0.75 12.6902 0.75 17C0.75 24.1825 5.41375 30.2762 11.865 32.4375C12.6775 32.5675 12.9375 32.0637 12.9375 31.625C12.9375 31.2512 12.9375 30.2275 12.9375 28.8787C8.43625 29.8537 7.4775 26.7012 7.4775 26.7012C6.73 24.8162 5.67375 24.3125 5.67375 24.3125C4.195 23.305 5.7875 23.3375 5.7875 23.3375C7.4125 23.4512 8.27375 25.0112 8.27375 25.0112C9.6875 27.4812 12.0763 26.75 13.0025 26.36C13.1488 25.3037 13.5712 24.5887 14.0262 24.1825C10.4187 23.7762 6.6325 22.3787 6.6325 16.1875C6.6325 14.3837 7.25 12.9375 8.30625 11.7837C8.14375 11.3775 7.575 9.6875 8.46875 7.49375C8.46875 7.49375 9.83375 7.055 12.9375 9.15125C14.2212 8.79375 15.6187 8.615 17 8.615C18.3813 8.615 19.7787 8.79375 21.0625 9.15125C24.1663 7.055 25.5312 7.49375 25.5312 7.49375C26.425 9.6875 25.8563 11.3775 25.6938 11.7837C26.75 12.9375 27.3675 14.3837 27.3675 16.1875C27.3675 22.395 23.565 23.76 19.9412 24.1662C20.5263 24.67 21.0625 25.6612 21.0625 27.1725C21.0625 29.35 21.0625 31.105 21.0625 31.625C21.0625 32.0637 21.3225 32.5837 22.1513 32.4375C28.6025 30.26 33.25 24.1825 33.25 17C33.25 14.866 32.8297 12.7529 32.013 10.7814C31.1964 8.80985 29.9994 7.01847 28.4905 5.50951C26.9815 4.00056 25.1901 2.8036 23.2186 1.98696C21.2471 1.17032 19.134 0.75 17 0.75Z" fill="black"/>
</svg>
