<svg width="34" height="34" viewBox="0 0 34 34" fill="none" xmlns="http://www.w3.org/2000/svg">
<path d="M10.175 0.75H23.825C29.025 0.75 33.25 4.975 33.25 10.175V23.825C33.25 26.3247 32.257 28.722 30.4895 30.4895C28.722 32.257 26.3247 33.25 23.825 33.25H10.175C4.975 33.25 0.75 29.025 0.75 23.825V10.175C0.75 7.67533 1.74299 5.27805 3.51052 3.51052C5.27805 1.74299 7.67533 0.75 10.175 0.75ZM9.85 4C8.29848 4 6.81051 4.61634 5.71343 5.71343C4.61634 6.81051 4 8.29848 4 9.85V24.15C4 27.3837 6.61625 30 9.85 30H24.15C25.7015 30 27.1895 29.3837 28.2866 28.2866C29.3837 27.1895 30 25.7015 30 24.15V9.85C30 6.61625 27.3837 4 24.15 4H9.85ZM25.5312 6.4375C26.07 6.4375 26.5866 6.65151 26.9676 7.03244C27.3485 7.41337 27.5625 7.93003 27.5625 8.46875C27.5625 9.00747 27.3485 9.52413 26.9676 9.90506C26.5866 10.286 26.07 10.5 25.5312 10.5C24.9925 10.5 24.4759 10.286 24.0949 9.90506C23.714 9.52413 23.5 9.00747 23.5 8.46875C23.5 7.93003 23.714 7.41337 24.0949 7.03244C24.4759 6.65151 24.9925 6.4375 25.5312 6.4375ZM17 8.875C19.1549 8.875 21.2215 9.73102 22.7452 11.2548C24.269 12.7785 25.125 14.8451 25.125 17C25.125 19.1549 24.269 21.2215 22.7452 22.7452C21.2215 24.269 19.1549 25.125 17 25.125C14.8451 25.125 12.7785 24.269 11.2548 22.7452C9.73102 21.2215 8.875 19.1549 8.875 17C8.875 14.8451 9.73102 12.7785 11.2548 11.2548C12.7785 9.73102 14.8451 8.875 17 8.875ZM17 12.125C15.7071 12.125 14.4671 12.6386 13.5529 13.5529C12.6386 14.4671 12.125 15.7071 12.125 17C12.125 18.2929 12.6386 19.5329 13.5529 20.4471C14.4671 21.3614 15.7071 21.875 17 21.875C18.2929 21.875 19.5329 21.3614 20.4471 20.4471C21.3614 19.5329 21.875 18.2929 21.875 17C21.875 15.7071 21.3614 14.4671 20.4471 13.5529C19.5329 12.6386 18.2929 12.125 17 12.125Z" fill="black"/>
</svg>
