<svg width="305" height="159" viewBox="0 0 305 159" fill="none" xmlns="http://www.w3.org/2000/svg">
<path d="M284.396 41.3701C279.269 40.8656 276.663 44.4532 276.001 46.3101C275.595 46.3101 275.59 48.0443 278.82 54.9813C282.05 61.9183 278.286 68.6276 276.001 71.1151C262.311 90.959 264.956 100.264 267.99 102.437C269.677 104.714 275.321 109.332 284.396 109.584C293.471 109.836 299.371 104.924 301.187 102.437C311.185 89.6137 295.804 78.052 291.189 71.1151C287.498 65.5655 289.651 58.0469 291.189 54.9813C291.958 53.9303 293.42 50.7245 293.112 46.3101C292.804 41.8957 287.173 41.1774 284.396 41.3701Z" fill="#E8C95D"/>
<path d="M243.285 0.0772327C238.158 -0.732635 235.552 5.02643 234.89 8.00719C234.484 8.00719 234.48 10.7911 237.71 21.9268C240.94 33.0624 237.176 43.8326 234.89 47.8257C221.201 79.6805 223.846 94.618 226.879 98.105C228.567 101.761 234.211 109.173 243.285 109.578C252.36 109.983 258.261 102.098 260.076 98.105C270.074 77.5208 254.693 58.9614 250.079 47.8257C246.387 38.9171 248.541 26.8478 250.079 21.9268C250.848 20.2395 252.309 15.0935 252.001 8.00719C251.694 0.920876 246.063 -0.232079 243.285 0.0772327Z" fill="#E8C95D"/>
<path d="M285.213 26.1561C279.062 25.3575 276.035 29.2986 275.29 31.3689C277.459 36.5817 279.627 37.1917 285.213 37.6908C290.799 38.1899 295.465 33.6426 294.676 31.3689C293.888 29.0953 292.902 27.1543 285.213 26.1561Z" fill="#E8C95D"/>
<path d="M89.5884 60.7557C83.4275 49.3307 98.2735 47.7792 106.467 48.4315C124.013 48.4315 122.121 61.408 118.981 67.8963C114.809 79.0215 111.665 100.796 132.458 98.8917C158.449 96.5115 137.271 52.3985 136.822 42.0843C136.373 31.7701 159.925 38.1173 158 48.4315C156.075 58.7457 152.737 81.0138 171.541 95.7181C190.344 110.422 173.915 117.14 162.364 118.356C150.812 119.573 164.289 106.826 152.737 108.042C141.186 109.259 78.9994 149.352 96.3269 101.272C113.654 53.1919 97.2895 75.0369 89.5884 60.7557Z" fill="#E8C95D"/>
<path fill-rule="evenodd" clip-rule="evenodd" d="M204.873 59.4344C189.484 56.2806 165.046 55.1557 161.826 70.6005C157.801 89.9066 188.419 103.244 204.873 86.3987C211.633 102.861 217.023 135.786 184.51 135.786C180.597 136.958 173.728 135.004 165.975 132.799C157.977 130.524 149.039 127.982 141.433 128.326C132.39 128.735 121.958 131.231 113.052 133.361C103.227 135.712 95.26 137.618 93.0684 135.786C88.1265 131.656 86.9047 127.592 85.9276 124.342C84.9739 121.17 84.2535 118.774 80.5342 117.849C63.7768 113.684 60.6055 120.137 58.441 128.326C57.0777 133.484 55.8736 149.93 80.5342 158.274C91.0068 160.592 99.6709 156.954 108.887 153.084C116.375 149.94 124.227 146.643 133.71 146.263C143.418 145.874 153.664 148.011 163.717 150.107C178.661 153.224 193.18 156.253 204.873 150.761C238.482 134.976 233.277 116.527 223.855 99.383C219.637 91.7091 218.829 84.8821 218.134 79.007C217.099 70.2538 216.313 63.6137 204.873 59.4344ZM169.634 71.8804C174.293 68.4789 188.51 63.7168 201.682 71.8804C214.854 80.044 164.527 87.1167 169.634 71.8804Z" fill="#E8C95D"/>
<path d="M81.9375 49.2019C57.9937 53.6049 54.6124 37.8685 55.9148 29.4499C51.418 23.0289 27.6806 32.2017 30.9979 61.1265C33.6518 84.2664 58.6915 81.1639 70.8797 76.7202C74.5656 75.1914 79.7259 72.1338 70.8797 72.1338C59.8219 72.1338 47.0686 68.9539 47.0686 61.1265C47.0686 53.2991 98.0081 52.3818 91.9632 84.5476C85.9182 116.714 32.1037 115.796 11.0939 93.7204C-9.91586 71.6446 -0.553603 22.5397 47.0686 3.70494C94.6908 -15.1298 111.867 43.6983 81.9375 49.2019Z" fill="#E8C95D"/>
</svg>
