<svg width="8" height="12" viewBox="0 0 8 12" fill="none" xmlns="http://www.w3.org/2000/svg">
<path d="M1.75 0.166633C1.15635 0.165691 0.566095 0.256196 0 0.434967C1.18441 0.807182 2.21917 1.54757 2.95376 2.54844C3.68835 3.54931 4.08446 4.75845 4.08446 5.99997C4.08446 7.24148 3.68835 8.45062 2.95376 9.45149C2.21917 10.4524 1.18441 11.1928 0 11.565C0.802118 11.817 1.64925 11.8927 2.48335 11.7869C3.31746 11.681 4.11882 11.3961 4.83253 10.9516C5.54624 10.5071 6.15544 9.91365 6.61837 9.21178C7.08131 8.5099 7.38705 7.71625 7.51465 6.88519C7.64224 6.05414 7.58867 5.20532 7.35761 4.39689C7.12655 3.58847 6.72346 2.83955 6.17595 2.20145C5.62845 1.56335 4.94947 1.05114 4.18554 0.699929C3.42162 0.348716 2.59079 0.166796 1.75 0.166633Z" fill="#575757"/>
</svg>
