<svg width="13" height="14" viewBox="0 0 13 14" fill="none" xmlns="http://www.w3.org/2000/svg">
<mask id="path-1-inside-1_232_62" fill="white">
<path d="M1.4875 11.1359L2.31 11.9584L3.36 10.9142L2.53167 10.0859M6.41667 3.50004C4.48583 3.50004 2.91667 5.06921 2.91667 7.00004C2.91667 8.93087 4.48583 10.5 6.41667 10.5C8.3475 10.5 9.91667 8.93087 9.91667 7.00004C9.91667 5.06337 8.3475 3.50004 6.41667 3.50004ZM11.0833 7.58337H12.8333V6.41671H11.0833M9.47333 10.9142L10.5233 11.9584L11.3458 11.1359L10.3017 10.0859M11.3458 2.91671L10.5233 2.10004L9.47333 3.14421L10.3017 3.97254M7 0.583374H5.83333V2.33337H7M3.36 3.14421L2.31 2.10004L1.4875 2.91671L2.53167 3.97254L3.36 3.14421ZM0 7.58337H1.75V6.41671H0M7 11.6667H5.83333V13.4167H7"/>
</mask>
<path d="M2.31 11.9584L1.60289 12.6655L2.30803 13.3706L3.01513 12.6674L2.31 11.9584ZM3.36 10.9142L4.06513 11.6233L4.77619 10.9162L4.06711 10.2071L3.36 10.9142ZM12.8333 7.58337V8.58337H13.8333V7.58337H12.8333ZM12.8333 6.41671H13.8333V5.41671H12.8333V6.41671ZM10.5233 11.9584L9.8182 12.6674L10.5253 13.3706L11.2304 12.6655L10.5233 11.9584ZM11.3458 11.1359L12.0529 11.843L12.7581 11.1378L12.0549 10.4307L11.3458 11.1359ZM10.5233 2.10004L11.2279 1.39042L10.5228 0.690292L9.8182 1.39097L10.5233 2.10004ZM9.47333 3.14421L8.7682 2.43513L8.05715 3.14223L8.76623 3.85131L9.47333 3.14421ZM5.83333 0.583374V-0.416626H4.83333V0.583374H5.83333ZM5.83333 2.33337H4.83333V3.33337H5.83333V2.33337ZM3.36 3.14421L4.06711 3.85131L4.77619 3.14223L4.06513 2.43513L3.36 3.14421ZM2.31 2.10004L3.01513 1.39097L2.31054 0.690292L1.60541 1.39042L2.31 2.10004ZM1.4875 2.91671L0.782914 2.20709L0.0747108 2.91027L0.776476 3.61987L1.4875 2.91671ZM2.53167 3.97254L1.82064 4.67571L2.52773 5.39069L3.23877 4.67965L2.53167 3.97254ZM1.75 7.58337V8.58337H2.75V7.58337H1.75ZM1.75 6.41671H2.75V5.41671H1.75V6.41671ZM5.83333 11.6667V10.6667H4.83333V11.6667H5.83333ZM5.83333 13.4167H4.83333V14.4167H5.83333V13.4167ZM0.780393 11.843L1.60289 12.6655L3.01711 11.2513L2.19461 10.4288L0.780393 11.843ZM3.01513 12.6674L4.06513 11.6233L2.65487 10.2051L1.60487 11.2493L3.01513 12.6674ZM4.06711 10.2071L3.23877 9.37877L1.82456 10.793L2.65289 11.6213L4.06711 10.2071ZM6.41667 2.50004C3.93355 2.50004 1.91667 4.51692 1.91667 7.00004H3.91667C3.91667 5.62149 5.03812 4.50004 6.41667 4.50004V2.50004ZM1.91667 7.00004C1.91667 9.48316 3.93355 11.5 6.41667 11.5V9.50004C5.03812 9.50004 3.91667 8.37859 3.91667 7.00004H1.91667ZM6.41667 11.5C8.89978 11.5 10.9167 9.48316 10.9167 7.00004H8.91667C8.91667 8.37859 7.79522 9.50004 6.41667 9.50004V11.5ZM10.9167 7.00004C10.9167 4.51 8.8987 2.50004 6.41667 2.50004V4.50004C7.7963 4.50004 8.91667 5.61674 8.91667 7.00004H10.9167ZM11.0833 8.58337H12.8333V6.58337H11.0833V8.58337ZM13.8333 7.58337V6.41671H11.8333V7.58337H13.8333ZM12.8333 5.41671H11.0833V7.41671H12.8333V5.41671ZM8.7682 11.6233L9.8182 12.6674L11.2285 11.2493L10.1785 10.2051L8.7682 11.6233ZM11.2304 12.6655L12.0529 11.843L10.6387 10.4288L9.81623 11.2513L11.2304 12.6655ZM12.0549 10.4307L11.0107 9.38074L9.59259 10.791L10.6368 11.841L12.0549 10.4307ZM12.0504 2.20709L11.2279 1.39042L9.81875 2.80966L10.6412 3.62633L12.0504 2.20709ZM9.8182 1.39097L8.7682 2.43513L10.1785 3.85328L11.2285 2.80911L9.8182 1.39097ZM8.76623 3.85131L9.59456 4.67965L11.0088 3.26543L10.1804 2.4371L8.76623 3.85131ZM7 -0.416626H5.83333V1.58337H7V-0.416626ZM4.83333 0.583374V2.33337H6.83333V0.583374H4.83333ZM5.83333 3.33337H7V1.33337H5.83333V3.33337ZM4.06513 2.43513L3.01513 1.39097L1.60487 2.80911L2.65487 3.85328L4.06513 2.43513ZM1.60541 1.39042L0.782914 2.20709L2.19209 3.62633L3.01459 2.80966L1.60541 1.39042ZM0.776476 3.61987L1.82064 4.67571L3.24269 3.26937L2.19852 2.21354L0.776476 3.61987ZM3.23877 4.67965L4.06711 3.85131L2.65289 2.4371L1.82456 3.26543L3.23877 4.67965ZM0 8.58337H1.75V6.58337H0V8.58337ZM2.75 7.58337V6.41671H0.75V7.58337H2.75ZM1.75 5.41671H0V7.41671H1.75V5.41671ZM7 10.6667H5.83333V12.6667H7V10.6667ZM4.83333 11.6667V13.4167H6.83333V11.6667H4.83333ZM5.83333 14.4167H7V12.4167H5.83333V14.4167Z" fill="#575757" mask="url(#path-1-inside-1_232_62)"/>
</svg>
