<svg width="22" height="22" viewBox="0 0 22 22" fill="none" xmlns="http://www.w3.org/2000/svg">
<path d="M6.0275 3.95L2.4975 7.5C-0.8325 10.81 -0.8325 16.19 2.4975 19.5C5.8275 22.81 11.1875 22.83 14.4975 19.5L20.4975 13.5C21.4975 12.53 21.4975 10.94 20.4975 9.96C20.3975 9.84 20.2675 9.73 20.1275 9.64L20.4975 9.25C21.4975 8.28 21.4975 6.69 20.4975 5.71C20.3575 5.55 20.1675 5.41 19.9975 5.3C20.3775 4.38 20.2075 3.28 19.4575 2.53C18.5875 1.66 17.2375 1.57 16.2575 2.25C16.1575 2.1 16.0475 1.96 15.9175 1.83C14.9475 0.86 13.3575 0.86 12.3775 1.83L9.8675 4.34C9.7775 4.2 9.6675 4.07 9.5475 3.95C8.5775 3 6.9975 3 6.0275 3.95ZM7.4375 5.37C7.6375 5.17 7.9475 5.17 8.1475 5.37C8.3475 5.57 8.3475 5.88 8.1475 6.08L4.9675 9.26C6.1375 10.43 6.1375 12.33 4.9675 13.5L6.3775 14.91C7.8275 13.46 8.1975 11.34 7.4975 9.55L13.7975 3.25C13.9975 3.05 14.3075 3.05 14.4975 3.25C14.6875 3.45 14.7075 3.76 14.4975 3.96L9.9075 8.56L11.3175 9.97L17.3275 3.96C17.5275 3.76 17.8375 3.76 18.0375 3.96C18.2375 4.16 18.2375 4.47 18.0375 4.67L12.0275 10.68L13.4375 12.09L18.3875 7.14C18.5875 6.94 18.8975 6.94 19.0975 7.14C19.2975 7.34 19.2975 7.65 19.0975 7.85L13.4375 13.5L14.8475 14.92L18.3875 11.38C18.5875 11.18 18.8975 11.18 19.0975 11.38C19.2975 11.58 19.2975 11.89 19.0975 12.09L13.0975 18.1C10.5575 20.64 6.4475 20.64 3.9075 18.1C1.3675 15.56 1.3675 11.45 3.9075 8.91L7.4375 5.37ZM21.9975 16C21.9975 19.31 19.2275 21 15.9175 21L15.9975 20.5C18.4975 20.5 20.4975 18.5 20.4975 16H21.9975ZM0.997559 5.71C0.997559 2.4 2.6875 0 5.9975 0V1.5C3.4975 1.5 1.4975 3.5 1.4975 6L0.997559 5.71Z" fill="black"/>
</svg>
